<mxfile host="app.diagrams.net" agent="Mozilla/5.0 (Windows NT 10.0; Win64; x64) AppleWebKit/537.36 (KHTML, like Gecko) Chrome/131.0.0.0 Safari/537.36" version="25.0.3">
  <diagram name="Page-1" id="EmyRBmUWxBnOAxm2vYun">
    <mxGraphModel dx="1149" dy="1673" grid="1" gridSize="10" guides="1" tooltips="1" connect="1" arrows="1" fold="1" page="1" pageScale="1" pageWidth="827" pageHeight="1169" math="0" shadow="0">
      <root>
        <mxCell id="0" />
        <mxCell id="1" parent="0" />
        <mxCell id="mCSiZ58ClOPkAgfMWmQi-1" value="Membres" style="shape=umlActor;verticalLabelPosition=bottom;verticalAlign=top;html=1;" parent="1" vertex="1">
          <mxGeometry x="110" y="122.5" width="50" height="105" as="geometry" />
        </mxCell>
        <mxCell id="mCSiZ58ClOPkAgfMWmQi-4" value="&lt;font style=&quot;font-size: 36px;&quot;&gt;salle de sport&amp;nbsp;&lt;/font&gt;" style="html=1;whiteSpace=wrap;verticalAlign=top;align=center;" parent="1" vertex="1">
          <mxGeometry x="230" y="40" width="580" height="980" as="geometry" />
        </mxCell>
        <mxCell id="mCSiZ58ClOPkAgfMWmQi-5" value="&lt;font style=&quot;font-size: 24px;&quot;&gt;Gestion de Salle de Sport&lt;/font&gt;" style="text;html=1;align=center;verticalAlign=middle;resizable=0;points=[];autosize=1;strokeColor=none;fillColor=none;labelBackgroundColor=#000000;fontColor=#FFFFFF;" parent="1" vertex="1">
          <mxGeometry x="345" y="-10" width="300" height="40" as="geometry" />
        </mxCell>
        <mxCell id="mCSiZ58ClOPkAgfMWmQi-6" value="inscription" style="ellipse;whiteSpace=wrap;html=1;" parent="1" vertex="1">
          <mxGeometry x="630" y="200" width="150" height="80" as="geometry" />
        </mxCell>
        <mxCell id="mCSiZ58ClOPkAgfMWmQi-7" value="Reserver les activitées" style="ellipse;whiteSpace=wrap;html=1;" parent="1" vertex="1">
          <mxGeometry x="370" y="150" width="110" height="50" as="geometry" />
        </mxCell>
        <mxCell id="mCSiZ58ClOPkAgfMWmQi-8" value="Consulter les activitées" style="ellipse;whiteSpace=wrap;html=1;" parent="1" vertex="1">
          <mxGeometry x="375" y="270" width="110" height="50" as="geometry" />
        </mxCell>
        <mxCell id="mCSiZ58ClOPkAgfMWmQi-13" value="" style="endArrow=open;endFill=1;endSize=12;html=1;rounded=0;" parent="1" source="mCSiZ58ClOPkAgfMWmQi-1" target="mCSiZ58ClOPkAgfMWmQi-7" edge="1">
          <mxGeometry width="160" relative="1" as="geometry">
            <mxPoint x="170" y="195" as="sourcePoint" />
            <mxPoint x="320" y="135" as="targetPoint" />
          </mxGeometry>
        </mxCell>
        <mxCell id="mCSiZ58ClOPkAgfMWmQi-15" value="" style="endArrow=open;endFill=1;endSize=12;html=1;rounded=0;" parent="1" target="mCSiZ58ClOPkAgfMWmQi-8" edge="1">
          <mxGeometry width="160" relative="1" as="geometry">
            <mxPoint x="180" y="215" as="sourcePoint" />
            <mxPoint x="340" y="215" as="targetPoint" />
          </mxGeometry>
        </mxCell>
        <mxCell id="mCSiZ58ClOPkAgfMWmQi-18" value="Administrateurs" style="shape=umlActor;verticalLabelPosition=bottom;verticalAlign=top;html=1;" parent="1" vertex="1">
          <mxGeometry x="110" y="520" width="50" height="105" as="geometry" />
        </mxCell>
        <mxCell id="mCSiZ58ClOPkAgfMWmQi-19" value="planifier les activitées ou les equipments" style="ellipse;whiteSpace=wrap;html=1;" parent="1" vertex="1">
          <mxGeometry x="360" y="410" width="150" height="70" as="geometry" />
        </mxCell>
        <mxCell id="mCSiZ58ClOPkAgfMWmQi-20" value="Afficher les planning des membres" style="ellipse;whiteSpace=wrap;html=1;" parent="1" vertex="1">
          <mxGeometry x="360" y="537.5" width="150" height="70" as="geometry" />
        </mxCell>
        <mxCell id="mCSiZ58ClOPkAgfMWmQi-21" value="Assister avec les problemes" style="ellipse;whiteSpace=wrap;html=1;" parent="1" vertex="1">
          <mxGeometry x="370" y="660" width="150" height="70" as="geometry" />
        </mxCell>
        <mxCell id="mCSiZ58ClOPkAgfMWmQi-22" value="" style="endArrow=open;endFill=1;endSize=12;html=1;rounded=0;entryX=0.059;entryY=0.654;entryDx=0;entryDy=0;entryPerimeter=0;" parent="1" target="mCSiZ58ClOPkAgfMWmQi-19" edge="1">
          <mxGeometry width="160" relative="1" as="geometry">
            <mxPoint x="170" y="541.79" as="sourcePoint" />
            <mxPoint x="330" y="541.79" as="targetPoint" />
          </mxGeometry>
        </mxCell>
        <mxCell id="mCSiZ58ClOPkAgfMWmQi-23" value="" style="endArrow=open;endFill=1;endSize=12;html=1;rounded=0;" parent="1" target="mCSiZ58ClOPkAgfMWmQi-21" edge="1">
          <mxGeometry width="160" relative="1" as="geometry">
            <mxPoint x="180" y="605.79" as="sourcePoint" />
            <mxPoint x="349" y="520" as="targetPoint" />
          </mxGeometry>
        </mxCell>
        <mxCell id="mCSiZ58ClOPkAgfMWmQi-24" value="" style="endArrow=open;endFill=1;endSize=12;html=1;rounded=0;" parent="1" target="mCSiZ58ClOPkAgfMWmQi-20" edge="1">
          <mxGeometry width="160" relative="1" as="geometry">
            <mxPoint x="170" y="560" as="sourcePoint" />
            <mxPoint x="349" y="560" as="targetPoint" />
          </mxGeometry>
        </mxCell>
        <mxCell id="mCSiZ58ClOPkAgfMWmQi-31" value="&amp;lt;&amp;lt;extend&amp;gt;&amp;gt;" style="endArrow=open;endSize=12;dashed=1;html=1;rounded=0;" parent="1" source="mCSiZ58ClOPkAgfMWmQi-8" target="mCSiZ58ClOPkAgfMWmQi-19" edge="1">
          <mxGeometry width="160" relative="1" as="geometry">
            <mxPoint x="450" y="301.66666666666674" as="sourcePoint" />
            <mxPoint x="380" y="400" as="targetPoint" />
          </mxGeometry>
        </mxCell>
        <mxCell id="xIlXQguk61hcJ1Py2HQ1-3" value="include" style="endArrow=open;endSize=12;dashed=1;html=1;rounded=0;" edge="1" parent="1" source="mCSiZ58ClOPkAgfMWmQi-7" target="mCSiZ58ClOPkAgfMWmQi-8">
          <mxGeometry width="160" relative="1" as="geometry">
            <mxPoint x="382.2931250238184" y="209.99730616017712" as="sourcePoint" />
            <mxPoint x="440" y="240" as="targetPoint" />
          </mxGeometry>
        </mxCell>
        <mxCell id="xIlXQguk61hcJ1Py2HQ1-6" value="&amp;lt;&amp;lt;extend&amp;gt;&amp;gt;" style="endArrow=open;endSize=12;dashed=1;html=1;rounded=0;exitX=0.563;exitY=-0.005;exitDx=0;exitDy=0;exitPerimeter=0;entryX=0.569;entryY=0.96;entryDx=0;entryDy=0;entryPerimeter=0;" edge="1" parent="1" source="mCSiZ58ClOPkAgfMWmQi-20" target="mCSiZ58ClOPkAgfMWmQi-19">
          <mxGeometry width="160" relative="1" as="geometry">
            <mxPoint x="488.5" y="548.1165919282507" as="sourcePoint" />
            <mxPoint x="430" y="480" as="targetPoint" />
          </mxGeometry>
        </mxCell>
        <mxCell id="xIlXQguk61hcJ1Py2HQ1-7" value="équipements maintenance team" style="shape=umlActor;verticalLabelPosition=bottom;verticalAlign=top;html=1;" vertex="1" parent="1">
          <mxGeometry x="110" y="820" width="50" height="105" as="geometry" />
        </mxCell>
        <mxCell id="xIlXQguk61hcJ1Py2HQ1-8" value="maintenances des équipements" style="ellipse;whiteSpace=wrap;html=1;" vertex="1" parent="1">
          <mxGeometry x="375" y="860" width="130" height="75" as="geometry" />
        </mxCell>
        <mxCell id="xIlXQguk61hcJ1Py2HQ1-9" value="" style="endArrow=open;endFill=1;endSize=12;html=1;rounded=0;" edge="1" parent="1" target="xIlXQguk61hcJ1Py2HQ1-8">
          <mxGeometry width="160" relative="1" as="geometry">
            <mxPoint x="180" y="880" as="sourcePoint" />
            <mxPoint x="344" y="949.21" as="targetPoint" />
          </mxGeometry>
        </mxCell>
        <mxCell id="xIlXQguk61hcJ1Py2HQ1-12" value="include" style="endArrow=open;endSize=12;dashed=1;html=1;rounded=0;exitX=1;exitY=0.5;exitDx=0;exitDy=0;" edge="1" parent="1" source="mCSiZ58ClOPkAgfMWmQi-7" target="mCSiZ58ClOPkAgfMWmQi-6">
          <mxGeometry width="160" relative="1" as="geometry">
            <mxPoint x="589.9994223826717" y="122.5" as="sourcePoint" />
            <mxPoint x="609.6200000000002" y="266.25" as="targetPoint" />
          </mxGeometry>
        </mxCell>
        <mxCell id="xIlXQguk61hcJ1Py2HQ1-14" value="include" style="endArrow=open;endSize=12;dashed=1;html=1;rounded=0;exitX=1;exitY=0.5;exitDx=0;exitDy=0;" edge="1" parent="1" source="mCSiZ58ClOPkAgfMWmQi-8" target="mCSiZ58ClOPkAgfMWmQi-6">
          <mxGeometry width="160" relative="1" as="geometry">
            <mxPoint x="550.0000000000001" y="353.8599999999999" as="sourcePoint" />
            <mxPoint x="674.6968141045471" y="122.5" as="targetPoint" />
          </mxGeometry>
        </mxCell>
      </root>
    </mxGraphModel>
  </diagram>
</mxfile>
